<svg width="279" height="55" viewBox="0 0 279 55" fill="none" xmlns="http://www.w3.org/2000/svg">
<path d="M32.364 10.3352L16.182 20.6704L32.364 31.0056L16.182 41.3408L0 30.9497L16.182 20.6145L0 10.3352L16.182 0L32.364 10.3352ZM16.0983 44.6648L32.2803 34.3296L48.4623 44.6648L32.2803 55L16.0983 44.6648ZM32.364 30.9497L48.546 20.6145L32.364 10.3352L48.4623 0L64.6443 10.3352L48.4623 20.6704L64.6443 31.0056L48.4623 41.3408L32.364 30.9497Z" fill="#FFAFA2"/>
<path d="M77.3388 10.3352H90.4239C98.766 10.3352 105.657 15.1676 105.657 26.2011V28.5195C105.657 39.6369 99.2124 44.6369 90.675 44.6369H77.3388V10.3352ZM84.6486 16.5642V38.3799H90.2565C94.9995 38.3799 98.1801 35.2793 98.1801 28.3799V26.5642C98.1801 19.6648 94.8321 16.5642 90.0054 16.5642H84.6486ZM109.535 16.8994H115.394L116.343 23.352C117.459 18.9665 120.305 16.6201 125.466 16.6201H127.28V24.0223H124.267C118.324 24.0223 116.873 26.0894 116.873 31.9553V44.7207H109.647V16.8994H109.535ZM128.731 31.3687V30.5866C128.731 21.2849 134.673 16.2011 142.764 16.2011C151.023 16.2011 156.798 21.2849 156.798 30.5866V31.3687C156.798 40.5028 151.19 45.419 142.764 45.419C133.808 45.3352 128.731 40.5307 128.731 31.3687ZM149.404 31.2849V30.5866C149.404 25.419 146.81 22.3184 142.681 22.3184C138.635 22.3184 135.957 25.1676 135.957 30.5866V31.2849C135.957 36.2849 138.551 39.1341 142.681 39.1341C146.81 39.0503 149.404 36.2849 149.404 31.2849ZM160.592 16.8994H166.619L167.316 22.1508C168.767 18.6313 171.864 16.2011 176.44 16.2011C183.498 16.2011 188.158 21.2849 188.158 30.6983V31.4804C188.158 40.6145 182.996 45.4469 176.44 45.4469C172.059 45.4469 169.046 43.4637 167.567 40.2793V54.3296H160.509L160.592 16.8994ZM180.82 31.2849V30.6704C180.82 25.1397 177.974 22.4022 174.18 22.4022C170.134 22.4022 167.456 25.5028 167.456 30.6704V31.2011C167.456 36.1173 170.05 39.2179 174.096 39.2179C178.253 39.1341 180.82 36.4804 180.82 31.2849ZM198.843 39.581L198.229 44.6648H192.036V7.59776H199.094V21.8156C200.657 18.1844 203.754 16.2011 208.134 16.2011C214.774 16.2849 219.685 20.8659 219.685 30.0838V30.9497C219.685 40.1676 215.025 45.4469 207.967 45.4469C203.307 45.3352 200.294 43.1844 198.843 39.581ZM212.263 30.9497V30.2514C212.263 25.1676 209.501 22.3184 205.623 22.3184C201.661 22.3184 198.899 25.5028 198.899 30.3352V30.9497C198.899 36.1173 201.577 39.1341 205.539 39.1341C209.78 39.1341 212.263 36.4804 212.263 30.9497ZM222.781 31.3687V30.5866C222.781 21.2849 228.724 16.2011 236.815 16.2011C245.074 16.2011 250.849 21.2849 250.849 30.5866V31.3687C250.849 40.5028 245.157 45.419 236.815 45.419C227.859 45.3352 222.781 40.5307 222.781 31.3687ZM243.511 31.2849V30.5866C243.511 25.419 240.917 22.3184 236.787 22.3184C232.742 22.3184 230.063 25.1676 230.063 30.5866V31.2849C230.063 36.2849 232.658 39.1341 236.787 39.1341C240.944 39.0503 243.511 36.2849 243.511 31.2849ZM260.307 30.2514L250.57 16.8994H258.912L264.52 25.2514L270.211 16.8994H278.47L268.593 30.1676L279 44.6648H270.825L264.464 35.4469L258.27 44.6648H249.733L260.307 30.2514Z" fill="white"/>
</svg>
